<?xml version="1.0" encoding="UTF-8" standalone="no"?>
<svg
   xmlns:dc="http://purl.org/dc/elements/1.1/"
   xmlns:cc="http://creativecommons.org/ns#"
   xmlns:rdf="http://www.w3.org/1999/02/22-rdf-syntax-ns#"
   xmlns:svg="http://www.w3.org/2000/svg"
   xmlns="http://www.w3.org/2000/svg"
   version="1.1"
   id="svg2"
   viewBox="0 0 159.8557 104.95076"
   height="29.619438mm"
   width="45.11483mm">
  <defs
     id="defs4" />
  <metadata
     id="metadata7">
    <rdf:RDF>
      <cc:Work
         rdf:about="">
        <dc:format>image/svg+xml</dc:format>
        <dc:type
           rdf:resource="http://purl.org/dc/dcmitype/StillImage" />
        <dc:title></dc:title>
      </cc:Work>
    </rdf:RDF>
  </metadata>
  <g
     transform="translate(-120.07215,-252.20775)"
     id="layer1">
    <g
       id="flowRoot3336"
       style="font-style:normal;font-variant:normal;font-weight:600;font-stretch:normal;font-size:40px;line-height:125%;font-family:'Open Sans';-inkscape-font-specification:'Open Sans Semi-Bold';text-align:center;letter-spacing:0px;word-spacing:0px;text-anchor:middle;fill:#000000;fill-opacity:1;stroke:none;stroke-width:1px;stroke-linecap:butt;stroke-linejoin:miter;stroke-opacity:1"
       transform="translate(-4.1837891,5.7245138)">
      <path
         id="path5527"
         style="font-size:20px;line-height:104.99999523%"
         d="m 195.44824,267.45491 q 0,2.23633 -1.46484,3.42773 -1.46485,1.19141 -4.16992,1.19141 l -1.48438,0 0,5.34179 -2.33398,0 0,-14.27734 4.11133,0 q 2.67578,0 4.0039,1.09375 1.33789,1.09375 1.33789,3.22266 z m -7.11914,2.65625 1.24024,0 q 1.79687,0 2.63671,-0.625 0.83985,-0.625 0.83985,-1.95313 0,-1.23047 -0.75195,-1.83594 -0.75196,-0.60546 -2.34375,-0.60546 l -1.6211,0 0,5.01953 z" />
      <path
         id="path5529"
         style="font-size:20px;line-height:104.99999523%"
         d="m 209.49121,263.1385 0,9.23828 q 0,1.58203 -0.68359,2.77344 -0.67383,1.18164 -1.96289,1.82617 -1.2793,0.63477 -3.06641,0.63477 -2.65625,0 -4.13086,-1.40625 -1.47461,-1.40625 -1.47461,-3.86719 l 0,-9.19922 2.34375,0 0,9.0332 q 0,1.76758 0.82031,2.60743 0.82032,0.83984 2.51954,0.83984 3.30078,0 3.30078,-3.4668 l 0,-9.01367 2.33398,0 z" />
      <path
         id="path5531"
         style="font-size:20px;line-height:104.99999523%"
         d="m 213.14355,263.1385 4.23829,0 q 2.94921,0 4.25781,0.85938 1.31836,0.85937 1.31836,2.71484 0,1.25 -0.64453,2.08008 -0.64453,0.83008 -1.85547,1.04492 l 0,0.0977 q 1.5039,0.2832 2.20703,1.12304 0.71289,0.83008 0.71289,2.25586 0,1.92383 -1.34766,3.01758 -1.33789,1.08398 -3.73047,1.08398 l -5.15625,0 0,-14.27734 z m 2.33399,5.89844 2.24609,0 q 1.46485,0 2.13867,-0.45899 0.67383,-0.46875 0.67383,-1.58203 0,-1.00586 -0.73242,-1.45508 -0.72266,-0.44921 -2.30469,-0.44921 l -2.02148,0 0,3.94531 z m 0,1.89453 0,4.52148 2.48047,0 q 1.46484,0 2.20703,-0.55664 0.75195,-0.5664 0.75195,-1.77734 0,-1.11328 -0.76172,-1.65039 -0.76172,-0.53711 -2.31445,-0.53711 l -2.36328,0 z" />
      <path
         id="path5533"
         style="font-size:35px;line-height:104.99999523%;fill:#55a32a;fill-opacity:1"
         d="m 140.93408,285.79218 7.41699,0 q 5.16114,0 7.45118,1.50391 2.30712,1.5039 2.30712,4.75097 0,2.1875 -1.12792,3.64014 -1.12793,1.45264 -3.24708,1.82861 l 0,0.1709 q 2.63184,0.49561 3.86231,1.96533 1.24756,1.45264 1.24756,3.94776 0,3.3667 -2.3584,5.28076 -2.34131,1.89697 -6.52832,1.89697 l -9.02344,0 0,-24.98535 z m 4.08447,10.32227 3.93067,0 q 2.56348,0 3.74267,-0.80323 1.1792,-0.82031 1.1792,-2.76855 0,-1.76025 -1.28173,-2.54639 -1.26465,-0.78613 -4.03321,-0.78613 l -3.5376,0 0,6.9043 z m 0,3.31543 0,7.91259 4.34082,0 q 2.56348,0 3.86231,-0.97412 1.31592,-0.99121 1.31592,-3.11035 0,-1.94824 -1.33301,-2.88818 -1.33301,-0.93994 -4.05029,-0.93994 l -4.13575,0 z" />
      <path
         id="path5535"
         style="font-size:35px;line-height:104.99999523%;fill:#55a32a;fill-opacity:1"
         d="m 183.62451,285.79218 0,16.16699 q 0,2.76856 -1.19629,4.85352 -1.1792,2.06787 -3.43506,3.1958 -2.23877,1.11084 -5.36621,1.11084 -4.64843,0 -7.229,-2.46094 -2.58057,-2.46094 -2.58057,-6.76758 l 0,-16.09863 4.10157,0 0,15.80811 q 0,3.09326 1.43554,4.56299 1.43555,1.46972 4.40918,1.46972 5.77637,0 5.77637,-6.06689 l 0,-15.77393 4.08447,0 z" />
      <path
         id="path5537"
         style="font-size:35px;line-height:104.99999523%;fill:#55a32a;fill-opacity:1"
         d="m 197.07422,297.19111 5.91308,-11.39893 4.44336,0 -8.32275,15.29541 0,9.68994 -4.10156,0 0,-9.55322 -8.28858,-15.43213 4.44336,0 5.91309,11.39893 z" />
      <path
         id="path5539"
         style="font-size:35px;line-height:104.99999523%;fill:#55a32a;fill-opacity:1"
         d="m 210.729,310.77753 0,-24.98535 4.08448,0 0,24.98535 -4.08448,0 z" />
      <path
         id="path5541"
         style="font-size:35px;line-height:104.99999523%;fill:#55a32a;fill-opacity:1"
         d="m 242.2085,310.77753 -5.00733,0 -12.2876,-19.90967 -0.13671,0 0.0854,1.11084 q 0.23926,3.17872 0.23926,5.81055 l 0,12.98828 -3.70849,0 0,-24.98535 4.95605,0 12.25342,19.80713 0.10254,0 q -0.0342,-0.39307 -0.13672,-2.854 -0.10254,-2.47803 -0.10254,-3.86231 l 0,-13.09082 3.74268,0 0,24.98535 z" />
      <path
         id="path5543"
         style="font-size:35px;line-height:104.99999523%;fill:#55a32a;fill-opacity:1"
         d="m 259.0249,297.22529 9.19434,0 0,12.54394 q -2.25586,0.73487 -4.34082,1.04248 -2.06787,0.30762 -4.47754,0.30762 -5.67383,0 -8.75,-3.34961 -3.07617,-3.3667 -3.07617,-9.48486 0,-6.03272 3.46924,-9.4336 3.46923,-3.41797 9.55322,-3.41797 3.91357,0 7.41699,1.50391 l -1.43555,3.40088 q -3.04199,-1.40137 -6.08398,-1.40137 -3.99902,0 -6.32324,2.51221 -2.32422,2.51221 -2.32422,6.87012 0,4.58007 2.08496,6.97265 2.10205,2.37549 6.03271,2.37549 1.98243,0 4.23828,-0.4956 l 0,-6.44288 -5.17822,0 0,-3.50341 z" />
      <path
         id="path5545"
         style="font-size:20px;line-height:104.99999523%"
         d="m 186.44434,322.68538 q -2.01172,0 -3.16407,1.42578 -1.15234,1.42578 -1.15234,3.93554 0,2.62696 1.10352,3.97461 1.11328,1.34766 3.21289,1.34766 0.9082,0 1.75781,-0.17578 0.84961,-0.18555 1.76758,-0.46875 l 0,2.00195 q -1.67969,0.63477 -3.8086,0.63477 -3.13476,0 -4.81445,-1.89453 -1.67969,-1.9043 -1.67969,-5.43946 0,-2.22656 0.81055,-3.89648 0.82031,-1.66992 2.36328,-2.5586 1.54297,-0.88867 3.62305,-0.88867 2.1875,0 4.04297,0.91797 l -0.83985,1.94336 q -0.72265,-0.3418 -1.5332,-0.5957 -0.80078,-0.26367 -1.68945,-0.26367 z" />
      <path
         id="path5547"
         style="font-size:20px;line-height:104.99999523%"
         d="m 193.06543,335.16584 0,-14.27734 2.33398,0 0,12.27539 6.04493,0 0,2.00195 -8.37891,0 z" />
      <path
         id="path5549"
         style="font-size:20px;line-height:104.99999523%"
         d="m 215.11621,320.8885 0,9.23828 q 0,1.58203 -0.68359,2.77344 -0.67383,1.18164 -1.96289,1.82617 -1.2793,0.63477 -3.06641,0.63477 -2.65625,0 -4.13086,-1.40625 -1.47461,-1.40625 -1.47461,-3.86719 l 0,-9.19922 2.34375,0 0,9.0332 q 0,1.76758 0.82031,2.60743 0.82032,0.83984 2.51954,0.83984 3.30078,0 3.30078,-3.4668 l 0,-9.01367 2.33398,0 z" />
      <path
         id="path5551"
         style="font-size:20px;line-height:104.99999523%"
         d="m 218.76855,320.8885 4.23829,0 q 2.94921,0 4.25781,0.85938 1.31836,0.85937 1.31836,2.71484 0,1.25 -0.64453,2.08008 -0.64453,0.83008 -1.85547,1.04492 l 0,0.0977 q 1.5039,0.2832 2.20703,1.12304 0.71289,0.83008 0.71289,2.25586 0,1.92383 -1.34766,3.01758 -1.33789,1.08398 -3.73047,1.08398 l -5.15625,0 0,-14.27734 z m 2.33399,5.89844 2.24609,0 q 1.46485,0 2.13867,-0.45899 0.67383,-0.46875 0.67383,-1.58203 0,-1.00586 -0.73242,-1.45508 -0.72266,-0.44921 -2.30469,-0.44921 l -2.02148,0 0,3.94531 z m 0,1.89453 0,4.52148 2.48047,0 q 1.46484,0 2.20703,-0.55664 0.75195,-0.5664 0.75195,-1.77734 0,-1.11328 -0.76172,-1.65039 -0.76172,-0.53711 -2.31445,-0.53711 l -2.36328,0 z" />
    </g>
    <path
       id="path4158"
       d="m 121.03633,331.48837 0,-53.60949 L 200,253.21851 l 78.96367,25.01777 0,53.43079 -78.79778,24.48167 z"
       style="fill:none;fill-rule:evenodd;stroke:#000000;stroke-width:1.9283613;stroke-linecap:butt;stroke-linejoin:miter;stroke-miterlimit:4;stroke-dasharray:none;stroke-opacity:1" />
  </g>
</svg>
